<svg xmlns="http://www.w3.org/2000/svg" class="icon-home" viewBox="0 0 32.4 28.8"><path d="M31.8 14.9l-1.2 1.5c-0.1 0.1-0.2 0.2-0.4 0.2h-0.1c-0.2 0-0.3 0-0.4-0.1L16.2 4.9 2.7 16.5c-0.2 0.1-0.3 0.2-0.5 0.1 -0.2 0-0.3-0.1-0.4-0.2l-1.2-1.5c-0.1-0.1-0.2-0.3-0.1-0.5 0-0.2 0.1-0.3 0.2-0.4L14.7 2c0.4-0.3 0.9-0.5 1.5-0.5s1.1 0.2 1.5 0.5l4.8 4.1V2.2c0-0.2 0.1-0.3 0.2-0.5 0.1-0.1 0.3-0.2 0.4-0.2h3.8c0.2 0 0.3 0.1 0.4 0.2 0.1 0.1 0.2 0.3 0.2 0.5v8.2l4.3 3.7c0.1 0.1 0.2 0.3 0.2 0.4C32 14.7 31.9 14.8 31.8 14.9zM27.4 16.3V26c0 0.3-0.1 0.6-0.4 0.9 -0.2 0.3-0.5 0.4-0.9 0.4h-7.5v-7.7h-5v7.7H6.2c-0.3 0-0.6-0.1-0.9-0.4 -0.2-0.3-0.4-0.6-0.4-0.9v-9.6c0 0 0 0 0-0.1 0 0 0 0 0-0.1l11.2-9.5 11.2 9.5C27.4 16.2 27.4 16.3 27.4 16.3z"/></svg>
