<svg xmlns="http://www.w3.org/2000/svg" class="icon-sunrise" viewBox="0 0 32.4 28.8"><path fill="#ffffff" d="M0.9 17c0-0.3 0.1-0.6 0.4-0.9 0.3-0.2 0.6-0.4 0.9-0.4H5c0.3 0 0.6 0.1 0.8 0.4s0.3 0.5 0.3 0.9c0 0.4-0.1 0.7-0.3 0.9S5.4 18.3 5 18.3H2.1c-0.3 0-0.6-0.1-0.9-0.4S0.9 17.3 0.9 17zM5 7c0-0.3 0.1-0.6 0.3-0.9 0.3-0.2 0.6-0.4 0.9-0.4 0.3 0 0.6 0.1 0.9 0.4l2.1 2.1c0.2 0.3 0.4 0.6 0.4 0.9 0 0.4-0.1 0.6-0.3 0.9s-0.5 0.4-0.8 0.4c-0.3 0-0.6-0.1-0.9-0.4l-2.1-2C5.1 7.7 5 7.4 5 7zM7.5 23.9c0-0.4 0.1-0.6 0.4-0.9 0.2-0.2 0.5-0.3 0.9-0.3H12l3.9-3.7c0.1-0.1 0.3-0.1 0.4 0l3.9 3.7h3.5c0.3 0 0.6 0.1 0.9 0.3s0.4 0.5 0.4 0.8c0 0.3-0.1 0.6-0.4 0.9s-0.5 0.4-0.9 0.4h-4.2c-0.1 0-0.2 0-0.4-0.1l-3-2.8 -3 2.8c-0.1 0.1-0.2 0.1-0.4 0.1H8.8c-0.3 0-0.6-0.1-0.9-0.4S7.5 24.2 7.5 23.9zM8.7 17c0 1.2 0.3 2.3 0.8 3.3 0 0.1 0.1 0.2 0.3 0.2h2.4c0.1 0 0.2 0 0.2-0.1s0-0.1 0-0.2c-0.8-1-1.2-2-1.2-3.2 0-1.4 0.5-2.6 1.5-3.6s2.2-1.5 3.6-1.5c1.4 0 2.6 0.5 3.6 1.5s1.5 2.2 1.5 3.6c0 1.2-0.4 2.2-1.2 3.2 -0.1 0.1-0.1 0.2 0 0.2s0.1 0.1 0.2 0.1h2.4c0.2 0 0.3-0.1 0.3-0.2 0.5-1 0.8-2.1 0.8-3.3 0-1-0.2-2-0.6-2.9s-0.9-1.7-1.6-2.4 -1.5-1.2-2.4-1.6 -1.9-0.6-2.9-0.6c-1 0-2 0.2-2.9 0.6s-1.7 0.9-2.4 1.6 -1.2 1.5-1.6 2.4S8.7 16 8.7 17zM15 5.8V2.9c0-0.4 0.1-0.7 0.4-0.9s0.5-0.3 0.9-0.3c0.4 0 0.6 0.1 0.9 0.4s0.3 0.5 0.3 0.9v2.9c0 0.4-0.1 0.7-0.3 0.9S16.6 7 16.2 7c-0.4 0-0.7-0.1-0.9-0.3S15 6.2 15 5.8zM22.9 9.1c0-0.3 0.1-0.6 0.3-0.9l2-2.1c0.2-0.2 0.5-0.4 0.9-0.4s0.6 0.1 0.9 0.4 0.4 0.5 0.4 0.9c0 0.4-0.1 0.7-0.3 0.9l-2.1 2c-0.3 0.2-0.6 0.4-0.9 0.4 -0.3 0-0.6-0.1-0.8-0.3S22.9 9.5 22.9 9.1zM26.2 17c0-0.3 0.1-0.6 0.3-0.9s0.5-0.4 0.8-0.4h2.9c0.3 0 0.6 0.1 0.9 0.4s0.4 0.5 0.4 0.9c0 0.3-0.1 0.6-0.4 0.9s-0.5 0.4-0.9 0.4h-2.9c-0.3 0-0.6-0.1-0.8-0.4S26.2 17.4 26.2 17z"/></svg>
